<svg width="320" height="278" viewBox="0 0 320 278" fill="none" xmlns="http://www.w3.org/2000/svg">
<path d="M253.629 32.8027H26.2374C11.7467 32.8027 0 44.5495 0 59.0402V251.448C0 265.939 11.7467 277.685 26.2374 277.685H253.629C268.119 277.685 279.866 265.939 279.866 251.448V59.0402C279.866 44.5495 268.119 32.8027 253.629 32.8027ZM122.441 242.702H34.9832V190.227H122.441V242.702ZM122.441 155.244H34.9832V102.769H122.441V155.244ZM244.883 242.702H157.425V190.227H244.883V242.702ZM244.883 155.244H157.425V102.769H244.883V155.244Z" fill="white"/>
<path d="M315.171 8.60531H282.901L280.373 3.57661C279.838 2.50153 279.013 1.59719 277.992 0.965338C276.97 0.333485 275.793 -0.000814263 274.592 4.7148e-05H243.855C242.657 -0.0045595 241.481 0.328494 240.463 0.961049C239.446 1.5936 238.627 2.50008 238.1 3.57661L235.572 8.60531H203.303C202.162 8.60531 201.067 9.05862 200.26 9.86552C199.453 10.6724 199 11.7668 199 12.9079V21.5132C199 22.6543 199.453 23.7487 200.26 24.5556C201.067 25.3625 202.162 25.8158 203.303 25.8158H315.171C316.312 25.8158 317.407 25.3625 318.213 24.5556C319.02 23.7487 319.474 22.6543 319.474 21.5132V12.9079C319.474 11.7668 319.02 10.6724 318.213 9.86552C317.407 9.05862 316.312 8.60531 315.171 8.60531V8.60531ZM213.306 125.583C213.511 128.86 214.958 131.936 217.351 134.184C219.744 136.432 222.904 137.684 226.187 137.684H292.286C295.57 137.684 298.73 136.432 301.123 134.184C303.516 131.936 304.962 128.86 305.167 125.583L310.868 34.4211H207.605L213.306 125.583Z" fill="#BE5959"/>
</svg>
