<svg width="60" height="60" viewBox="0 0 60 60" fill="none" xmlns="http://www.w3.org/2000/svg">
<path d="M59.7094 21.2689L38.6831 0.29067C38.2956 -0.09689 37.658 -0.09689 37.2705 0.29067L33.0203 4.52883C32.6327 4.91639 32.6327 5.55399 33.0203 5.94155L34.4203 7.32926L4.11853 37.5714C-0.731755 42.4097 -1.5193 50.3234 2.94346 55.5117C5.51862 58.5122 9.13133 60.0124 12.744 59.9999C16.0442 59.9999 19.3444 58.7497 21.8571 56.2368L52.6464 25.5196L54.0465 26.9073C54.434 27.2949 55.0716 27.2949 55.4591 26.9073L59.7094 22.6691C60.0969 22.2941 60.0969 21.6565 59.7094 21.2689ZM39.7457 30.0078H20.1195L38.6206 11.5424L48.4337 21.3314L39.7457 30.0078Z" fill="#E2E2E2"/>
</svg>
