<svg width="438" height="438" viewBox="0 0 438 438" fill="none" xmlns="http://www.w3.org/2000/svg">
<path d="M435.878 155.263L282.387 2.12189C279.558 -0.707297 274.904 -0.707297 272.075 2.12189L241.048 33.0604C238.219 35.8896 238.219 40.5441 241.048 43.3733L251.269 53.5036L30.0653 274.272C-5.34182 309.591 -11.0909 367.361 21.4873 405.236C40.2859 427.139 66.6587 438.091 93.0316 437.999C117.123 437.999 141.214 428.873 159.557 410.529L384.319 186.293L394.54 196.423C397.369 199.252 402.023 199.252 404.851 196.423L435.878 165.485C438.707 162.747 438.707 158.092 435.878 155.263ZM290.143 219.057H146.872L281.93 84.2596L353.566 155.719L290.143 219.057Z" fill="#F5F5F5"/>
</svg>
