<svg width="500" height="500" viewBox="0 0 500 500" fill="none" xmlns="http://www.w3.org/2000/svg">
<path d="M497.578 177.241L322.359 2.42225C319.13 -0.807417 313.817 -0.807417 310.588 2.42225L275.169 37.7402C271.94 40.9699 271.94 46.2832 275.169 49.5129L286.836 61.0772L34.3211 313.095C-6.09796 353.414 -12.6609 419.362 24.5289 462.598C45.9885 487.602 76.0945 500.104 106.2 499.999C133.702 499.999 161.204 489.581 182.142 468.64L438.72 212.663L450.388 224.227C453.617 227.457 458.93 227.457 462.159 224.227L497.578 188.909C500.807 185.784 500.807 180.471 497.578 177.241ZM331.214 250.065H167.662L321.838 96.1868L403.614 177.762L331.214 250.065Z" fill="#0075C4"/>
</svg>
