<svg width="20" height="24" viewBox="0 0 20 24" fill="none" xmlns="http://www.w3.org/2000/svg">
<path d="M20 16.643V1.64296C20 1.04921 19.5223 0.571533 18.9286 0.571533H4.28571C1.91964 0.571533 0 2.49118 0 4.85725V19.143C0 21.509 1.91964 23.4287 4.28571 23.4287H18.9286C19.5223 23.4287 20 22.951 20 22.3572V21.643C20 21.3081 19.8438 21.0046 19.6027 20.8081C19.4152 20.1206 19.4152 18.1608 19.6027 17.4733C19.8438 17.2814 20 16.9778 20 16.643ZM5.71429 6.55368C5.71429 6.40635 5.83482 6.28582 5.98214 6.28582H15.4464C15.5938 6.28582 15.7143 6.40635 15.7143 6.55368V7.44653C15.7143 7.59385 15.5938 7.71439 15.4464 7.71439H5.98214C5.83482 7.71439 5.71429 7.59385 5.71429 7.44653V6.55368ZM5.71429 9.41082C5.71429 9.2635 5.83482 9.14296 5.98214 9.14296H15.4464C15.5938 9.14296 15.7143 9.2635 15.7143 9.41082V10.3037C15.7143 10.451 15.5938 10.5715 15.4464 10.5715H5.98214C5.83482 10.5715 5.71429 10.451 5.71429 10.3037V9.41082ZM17.0268 20.5715H4.28571C3.49554 20.5715 2.85714 19.9331 2.85714 19.143C2.85714 18.3572 3.5 17.7144 4.28571 17.7144H17.0268C16.942 18.4778 16.942 19.8081 17.0268 20.5715Z" fill="white"/>
<rect x="2.95368" y="3.67285" width="14.0299" height="8.27023" fill="white"/>
<path d="M14.9618 12.9838L12.2573 8.63407V5.14968H12.4419C12.7488 5.14968 12.9957 4.90277 12.9957 4.59587V4.22666C12.9957 3.91976 12.7488 3.67285 12.4419 3.67285H7.64219C7.33529 3.67285 7.08838 3.91976 7.08838 4.22666V4.59587C7.08838 4.90277 7.33529 5.14968 7.64219 5.14968H7.8268V8.63407L5.12233 12.9838C4.44621 14.0706 5.22617 15.4875 6.50918 15.4875H13.5749C14.8603 15.4875 15.6379 14.0683 14.9618 12.9838ZM8.05525 11.057L9.16749 9.26634C9.25287 9.14634 9.30133 8.99866 9.30133 8.84175V5.14968H10.7782V8.84175C10.7782 9.00097 10.8289 9.14634 10.912 9.26634L12.0243 11.057H8.05525Z" fill="#9E9E9E"/>
</svg>
