<svg width="57" height="65" viewBox="0 0 57 65" fill="none" xmlns="http://www.w3.org/2000/svg">
<path d="M56.875 45.7031V3.04688C56.875 1.3584 55.5166 0 53.8281 0H12.1875C5.45898 0 0 5.45898 0 12.1875V52.8125C0 59.541 5.45898 65 12.1875 65H53.8281C55.5166 65 56.875 63.6416 56.875 61.9531V59.9219C56.875 58.9697 56.4307 58.1064 55.7451 57.5479C55.2119 55.5928 55.2119 50.0195 55.7451 48.0645C56.4307 47.5186 56.875 46.6553 56.875 45.7031ZM16.25 17.0117C16.25 16.5928 16.5928 16.25 17.0117 16.25H43.9258C44.3447 16.25 44.6875 16.5928 44.6875 17.0117V19.5508C44.6875 19.9697 44.3447 20.3125 43.9258 20.3125H17.0117C16.5928 20.3125 16.25 19.9697 16.25 19.5508V17.0117ZM16.25 25.1367C16.25 24.7178 16.5928 24.375 17.0117 24.375H43.9258C44.3447 24.375 44.6875 24.7178 44.6875 25.1367V27.6758C44.6875 28.0947 44.3447 28.4375 43.9258 28.4375H17.0117C16.5928 28.4375 16.25 28.0947 16.25 27.6758V25.1367ZM48.4199 56.875H12.1875C9.94043 56.875 8.125 55.0596 8.125 52.8125C8.125 50.5781 9.95313 48.75 12.1875 48.75H48.4199C48.1787 50.9209 48.1787 54.7041 48.4199 56.875Z" fill="#E2E2E2"/>
<rect x="8.39948" y="8.81934" width="39.8974" height="23.5185" fill="#E2E2E2"/>
<path d="M42.5482 35.2973L34.8574 22.9278V13.0191H35.3823C36.2551 13.0191 36.9572 12.3169 36.9572 11.4442V10.3942C36.9572 9.52148 36.2551 8.81934 35.3823 8.81934H21.7331C20.8603 8.81934 20.1582 9.52148 20.1582 10.3942V11.4442C20.1582 12.3169 20.8603 13.0191 21.7331 13.0191H22.2581V22.9278L14.5672 35.2973C12.6445 38.388 14.8625 42.4172 18.5111 42.4172H38.6043C42.2595 42.4172 44.4709 38.3815 42.5482 35.2973ZM22.9077 29.818L26.0707 24.7258C26.3135 24.3846 26.4513 23.9646 26.4513 23.5184V13.0191H30.651V23.5184C30.651 23.9712 30.7954 24.3846 31.0316 24.7258L34.1946 29.818H22.9077Z" fill="#383838"/>
</svg>
