<svg width="438" height="500" viewBox="0 0 438 500" fill="none" xmlns="http://www.w3.org/2000/svg">
<path fill-rule="evenodd" clip-rule="evenodd" d="M437.5 23.4375C437.5 10.4492 427.051 0 414.062 0H93.75C41.9922 0 0 41.9922 0 93.75V406.25C0 458.008 41.9922 500 93.75 500H414.062C427.051 500 437.5 489.551 437.5 476.562V460.938C437.5 453.613 434.082 446.973 428.809 442.676C424.707 427.637 424.707 384.766 428.809 369.727C434.082 365.527 437.5 358.887 437.5 351.562V23.4375ZM372.461 437.5H93.75C76.4648 437.5 62.5 423.535 62.5 406.25C62.5 389.062 76.5625 375 93.75 375H372.461C370.605 391.699 370.605 420.801 372.461 437.5ZM267.23 176.059L326.39 271.21C341.18 294.934 324.169 325.978 296.053 325.978H141.489C113.424 325.978 96.3621 294.984 111.152 271.21L170.312 176.059V99.8385H166.274C159.561 99.8385 154.159 94.4374 154.159 87.7239V79.6475C154.159 72.934 159.561 67.5329 166.274 67.5329H271.268C277.982 67.5329 283.383 72.934 283.383 79.6475V87.7239C283.383 94.4374 277.982 99.8385 271.268 99.8385H267.23V176.059ZM199.64 189.89L175.31 229.061H262.132L237.801 189.89C235.984 187.265 234.874 184.085 234.874 180.602V99.8385H202.568V180.602C202.568 184.035 201.508 187.265 199.64 189.89Z" fill="#F5F5F5"/>
</svg>
