<svg width="21" height="8" viewBox="0 0 21 8" fill="none" xmlns="http://www.w3.org/2000/svg">
<path d="M3.345 0.655029C1.49716 0.655029 0 2.15219 0 4.00003C0 5.84787 1.49716 7.34503 3.345 7.34503C5.19284 7.34503 6.69 5.84787 6.69 4.00003C6.69 2.15219 5.19284 0.655029 3.345 0.655029Z" fill="white"/>
<path d="M10.345 0.655029C8.49716 0.655029 7 2.15219 7 4.00003C7 5.84787 8.49716 7.34503 10.345 7.34503C12.1928 7.34503 13.69 5.84787 13.69 4.00003C13.69 2.15219 12.1928 0.655029 10.345 0.655029Z" fill="white"/>
<path d="M17.345 0.655029C15.4972 0.655029 14 2.15219 14 4.00003C14 5.84787 15.4972 7.34503 17.345 7.34503C19.1928 7.34503 20.69 5.84787 20.69 4.00003C20.69 2.15219 19.1928 0.655029 17.345 0.655029Z" fill="white"/>
</svg>
