<svg width="328" height="280" viewBox="0 0 328 280" fill="none" xmlns="http://www.w3.org/2000/svg">
<path d="M253.629 34.8027H26.2374C11.7467 34.8027 0 46.5495 0 61.0402V253.448C0 267.939 11.7467 279.685 26.2374 279.685H253.629C268.119 279.685 279.866 267.939 279.866 253.448V61.0402C279.866 46.5495 268.119 34.8027 253.629 34.8027ZM122.441 244.702H34.9832V192.227H122.441V244.702ZM122.441 157.244H34.9832V104.769H122.441V157.244ZM244.883 244.702H157.425V192.227H244.883V244.702ZM244.883 157.244H157.425V104.769H244.883V157.244Z" fill="white"/>
<path d="M184.75 149.459L184.805 149.956L184.75 149.459C180.592 149.919 177.078 146.403 177.541 142.245L177.044 142.19L177.541 142.245L181.243 108.956L262.182 28.0218L298.982 64.8211L218.016 145.787L184.75 149.459ZM304.922 4.47349L322.533 22.0841C327.831 27.382 327.831 35.9719 322.533 41.2729C322.533 41.2729 322.533 41.2729 322.533 41.273L306.319 57.487L269.519 20.6876L285.734 4.47349C291.032 -0.824498 299.624 -0.824498 304.922 4.47349Z" fill="#DEDEDE" stroke="#F1F1F1"/>
</svg>
