<svg width="328" height="280" viewBox="0 0 328 280" fill="none" xmlns="http://www.w3.org/2000/svg">
<path d="M253.629 34.8027H26.2374C11.7467 34.8027 0 46.5495 0 61.0402V253.448C0 267.939 11.7467 279.685 26.2374 279.685H253.629C268.119 279.685 279.866 267.939 279.866 253.448V61.0402C279.866 46.5495 268.119 34.8027 253.629 34.8027ZM122.441 244.702H34.9832V192.227H122.441V244.702ZM122.441 157.244H34.9832V104.769H122.441V157.244ZM244.883 244.702H157.425V192.227H244.883V244.702ZM244.883 157.244H157.425V104.769H244.883V157.244Z" fill="#474747"/>
<path d="M262.182 27.3147L299.689 64.8211L218.245 146.265L184.805 149.956C180.328 150.451 176.546 146.666 177.044 142.19L180.765 108.726L262.182 27.3147ZM322.886 21.7306L305.276 4.11994C299.783 -1.37331 290.873 -1.37331 285.38 4.11994L268.812 20.6876L306.319 58.1941L322.886 41.6264C328.38 36.1302 328.38 27.2238 322.886 21.7306V21.7306Z" fill="#696969"/>
</svg>
