<svg width="328" height="280" viewBox="0 0 328 280" fill="none" xmlns="http://www.w3.org/2000/svg">
<path d="M253.629 35H26.2374C11.7467 35 0 46.7467 0 61.2374V253.645C0 268.136 11.7467 279.883 26.2374 279.883H253.629C268.119 279.883 279.866 268.136 279.866 253.645V61.2374C279.866 46.7467 268.119 35 253.629 35ZM122.441 244.899H34.9832V192.425H122.441V244.899ZM122.441 157.441H34.9832V104.966H122.441V157.441ZM244.883 244.899H157.425V192.425H244.883V244.899ZM244.883 157.441H157.425V104.966H244.883V157.441Z" fill="#474747"/>
<path d="M262.182 27.3147L299.689 64.8211L218.245 146.265L184.805 149.956C180.328 150.451 176.546 146.666 177.044 142.19L180.765 108.726L262.182 27.3147ZM322.886 21.7306L305.276 4.11994C299.783 -1.37331 290.873 -1.37331 285.38 4.11994L268.812 20.6876L306.319 58.1941L322.886 41.6264C328.38 36.1302 328.38 27.2238 322.886 21.7306V21.7306Z" fill="#0075C4"/>
</svg>
