<svg width="50" height="48" viewBox="0 0 50 48" fill="none" xmlns="http://www.w3.org/2000/svg">
<rect width="3.34884" height="11" rx="0.5" transform="matrix(-3.01103e-08 1 1 6.34562e-08 0 44.6511)" fill="#D9D9D9"/>
<rect width="3.34884" height="11" rx="0.5" transform="matrix(-3.01103e-08 1 1 6.34562e-08 0 39.0697)" fill="#D9D9D9"/>
<rect width="3.34884" height="11" rx="0.5" transform="matrix(-3.01103e-08 1 1 6.34562e-08 0 33.4884)" fill="#D9D9D9"/>
<rect width="3.34884" height="11" rx="0.5" transform="matrix(-3.01103e-08 1 1 6.34562e-08 0 27.907)" fill="#D9D9D9"/>
<rect width="3.34884" height="11" rx="0.5" transform="matrix(-3.01103e-08 1 1 6.34562e-08 0 22.3255)" fill="#D9D9D9"/>
<rect width="3.34884" height="11" rx="0.5" transform="matrix(-3.01103e-08 1 1 6.34562e-08 0 16.7442)" fill="#D9D9D9"/>
<rect width="3.34884" height="11" rx="0.5" transform="matrix(-3.01103e-08 1 1 6.34562e-08 0 11.1629)" fill="#D9D9D9"/>
<rect width="3.34884" height="11" rx="0.5" transform="matrix(-3.01103e-08 1 1 6.34562e-08 0 5.58136)" fill="#D9D9D9"/>
<rect width="3.34884" height="11" rx="0.5" transform="matrix(-3.52511e-08 1 1 5.42021e-08 0 0)" fill="#D9D9D9"/>
<rect width="3.34884" height="11.2903" rx="0.5" transform="matrix(-3.01103e-08 1 1 6.34562e-08 12.9033 44.6511)" fill="#D9D9D9"/>
<rect width="3.34884" height="11.2903" rx="0.5" transform="matrix(-3.01103e-08 1 1 6.34562e-08 12.9033 39.0697)" fill="#D9D9D9"/>
<rect width="3.34884" height="11.2903" rx="0.5" transform="matrix(-3.01103e-08 1 1 6.34562e-08 12.9033 33.4884)" fill="#D9D9D9"/>
<rect width="3.34884" height="11.2903" rx="0.5" transform="matrix(-3.01103e-08 1 1 6.34562e-08 12.9033 27.907)" fill="#D9D9D9"/>
<rect width="3.34884" height="11.2903" rx="0.5" transform="matrix(-3.01103e-08 1 1 6.34562e-08 12.9033 22.3255)" fill="#D9D9D9"/>
<rect width="3.34884" height="11.2903" rx="0.5" transform="matrix(-3.01103e-08 1 1 6.34562e-08 12.9033 16.7442)" fill="#D9D9D9"/>
<rect width="3.34884" height="11.2903" rx="0.5" transform="matrix(-3.01103e-08 1 1 6.34562e-08 12.9033 11.1629)" fill="#D9D9D9"/>
<rect width="3.34884" height="11.2903" rx="0.5" transform="matrix(-3.01103e-08 1 1 6.34562e-08 12.9033 5.58136)" fill="#D9D9D9"/>
<rect width="3.34884" height="11.2903" rx="0.5" transform="matrix(-3.52511e-08 1 1 5.42021e-08 12.9033 0)" fill="#D9D9D9"/>
<rect width="3.34884" height="11.2903" rx="0.5" transform="matrix(-3.01103e-08 1 1 6.34562e-08 25.8065 44.6511)" fill="#D9D9D9"/>
<rect width="3.34884" height="11.2903" rx="0.5" transform="matrix(-3.01103e-08 1 1 6.34562e-08 25.8065 39.0697)" fill="#D9D9D9"/>
<rect width="3.34884" height="11.2903" rx="0.5" transform="matrix(-3.01103e-08 1 1 6.34562e-08 25.8065 33.4884)" fill="#D9D9D9"/>
<rect width="3.34884" height="11.2903" rx="0.5" transform="matrix(-3.01103e-08 1 1 6.34562e-08 25.8065 27.907)" fill="#D9D9D9"/>
<rect width="3.34884" height="11.2903" rx="0.5" transform="matrix(-3.01103e-08 1 1 6.34562e-08 25.8065 22.3255)" fill="#D9D9D9"/>
<rect width="3.34884" height="11.2903" rx="0.5" transform="matrix(-3.01103e-08 1 1 6.34562e-08 25.8065 16.7442)" fill="#D9D9D9"/>
<rect width="3.34884" height="11.2903" rx="0.5" transform="matrix(-3.01103e-08 1 1 6.34562e-08 25.8065 11.1629)" fill="#D9D9D9"/>
<rect width="3.34884" height="11.2903" rx="0.5" transform="matrix(-3.01103e-08 1 1 6.34562e-08 25.8065 5.58136)" fill="#D9D9D9"/>
<rect width="3.34884" height="11.2903" rx="0.5" transform="matrix(-3.52511e-08 1 1 5.42021e-08 25.8065 0)" fill="#D9D9D9"/>
<rect width="3.34884" height="11.2903" rx="0.5" transform="matrix(-3.01103e-08 1 1 6.34562e-08 38.7097 44.6511)" fill="#D9D9D9"/>
<rect width="3.34884" height="11.2903" rx="0.5" transform="matrix(-3.01103e-08 1 1 6.34562e-08 38.7097 39.0697)" fill="#D9D9D9"/>
<rect width="3.34884" height="11.2903" rx="0.5" transform="matrix(-3.01103e-08 1 1 6.34562e-08 38.7097 33.4884)" fill="#D9D9D9"/>
<rect width="3.34884" height="11.2903" rx="0.5" transform="matrix(-3.01103e-08 1 1 6.34562e-08 38.7097 27.907)" fill="#D9D9D9"/>
<rect width="3.34884" height="11.2903" rx="0.5" transform="matrix(-3.01103e-08 1 1 6.34562e-08 38.7097 22.3255)" fill="#D9D9D9"/>
<rect width="3.34884" height="11.2903" rx="0.5" transform="matrix(-3.01103e-08 1 1 6.34562e-08 38.7097 16.7442)" fill="#D9D9D9"/>
<rect width="3.34884" height="11.2903" rx="0.5" transform="matrix(-3.01103e-08 1 1 6.34562e-08 38.7097 11.1629)" fill="#D9D9D9"/>
<rect width="3.34884" height="11.2903" rx="0.5" transform="matrix(-3.01103e-08 1 1 6.34562e-08 38.7097 5.58136)" fill="#D9D9D9"/>
<rect width="3.34884" height="11.2903" rx="0.5" transform="matrix(-3.52511e-08 1 1 5.42021e-08 38.7097 0)" fill="#D9D9D9"/>
</svg>
